<svg xmlns="http://www.w3.org/2000/svg" viewBox="0 0 220 72" role="img" aria-labelledby="title">
  <title id="title">PayPal</title>
  <rect width="220" height="72" rx="18" fill="#fff"/>
  <path d="M42.2 15.4h-15.1c-1.1 0-2 .8-2.2 1.9l-6.1 38.8c-.2.9.5 1.7 1.4 1.7h7.5l1.7-11h6.2c12 0 19-5.8 20.8-17.3.8-4.9 0-8.6-2.4-11.1-2.6-2.9-6.7-3-11.8-3z" fill="#003087"/>
  <path d="M49.8 25.2c-.4 11.6-7.8 17.8-19.8 17.8h-5.6l-2.1 13.1c-.1.9.5 1.7 1.4 1.7h7.9c1 0 1.9-.7 2.1-1.7l.1-.4 1.5-9.5.1-.5c.2-1 1-1.7 2.1-1.7h1.3c10.5 0 18.7-4.3 21.1-16.6.7-3.6.3-6.5-1.2-8.7-1.2 3.7-4.2 5.9-8.9 6.5z" fill="#009cde"/>
  <text x="78" y="45" fill="#003087" font-family="Arial, Helvetica, sans-serif" font-size="27" font-weight="800">PayPal</text>
</svg>
